PathFileType	4	(X/Y/Z)	/home/nbianco/projects/addbio/data/HamnerRunning2013/Processed/subject20//results/MarkerData/run500.trc
DataRate	CameraRate	NumFrames	NumMarkers	Units	OrigDataRate	OrigDataStartFrame	OrigNumFrames
120.005	120.005	10	42	m	120.005	54	216
Frame#	Time	C7			CLAV			LACR			LASI			LCAL			LFAradius			LFAsuperior			LFAulna			LLEL			LMEL			LMT5			LPSI			LTB1			LTB2			LTB3			LTH1			LTH2			LTH3			LTOE			LUA1			LUA2			LUA3			RACR			RASI			RCAL			RFAradius			RFAsuperior			RFAulna			RLEL			RMEL			RMT5			RPSI			RTB1			RTB2			RTB3			RTH1			RTH2			RTH3			RTOE			RUA1			RUA2			RUA3		
		X1	Y1	Z1	X2	Y2	Z2	X3	Y3	Z3	X4	Y4	Z4	X5	Y5	Z5	X6	Y6	Z6	X7	Y7	Z7	X8	Y8	Z8	X9	Y9	Z9	X10	Y10	Z10	X11	Y11	Z11	X12	Y12	Z12	X13	Y13	Z13	X14	Y14	Z14	X15	Y15	Z15	X16	Y16	Z16	X17	Y17	Z17	X18	Y18	Z18	X19	Y19	Z19	X20	Y20	Z20	X21	Y21	Z21	X22	Y22	Z22	X23	Y23	Z23	X24	Y24	Z24	X25	Y25	Z25	X26	Y26	Z26	X27	Y27	Z27	X28	Y28	Z28	X29	Y29	Z29	X30	Y30	Z30	X31	Y31	Z31	X32	Y32	Z32	X33	Y33	Z33	X34	Y34	Z34	X35	Y35	Z35	X36	Y36	Z36	X37	Y37	Z37	X38	Y38	Z38	X39	Y39	Z39	X40	Y40	Z40	X41	Y41	Z41	X42	Y42	Z42

55	0.55	0.742426	1.47619	-0.410443	0.876373	1.38791	-0.365932	0.781094	1.41378	-0.588185	0.766431	0.967712	-0.518626	0.320784	0.140163	-0.416085	0.957212	1.27988	-0.613436	0.851981	1.19815	-0.728417	0.995555	1.22807	-0.633717	0.791696	1.15637	-0.74598	0.789283	1.09253	-0.684011	0.490917	0.0579322	-0.48458	0.608684	1.00472	-0.407992	0.619303	0.337955	-0.446819	0.523836	0.269689	-0.491062	0.491328	0.198541	-0.413856	0.699184	0.825731	-0.551099	0.738625	0.705609	-0.540444	0.650038	0.576839	-0.526336	0.525729	0.0711673	-0.398622	0.767097	1.33669	-0.643394	0.729858	1.25099	-0.631277	0.774572	1.25376	-0.690339	0.767651	1.44911	-0.219926	0.79107	0.977539	-0.261553	0.527881	0.627032	-0.298873	0.772891	1.06281	-0.112739	0.66086	1.18093	-0.0564676	0.715244	1.0327	-0.0878328	0.599321	1.24268	-0.0539705	0.554942	1.22455	-0.12726	0.495062	0.444314	-0.205505	0.619119	1.00409	-0.324424	0.839043	0.485739	-0.286	0.775103	0.529233	-0.232868	0.664817	0.513133	-0.297611	0.805477	0.811253	-0.217138	0.923052	0.739795	-0.246996	0.912117	0.610243	-0.221672	0.511093	0.407557	-0.293634	0.710614	1.37144	-0.145406	0.704606	1.30167	-0.132221	0.60351	1.32287	-0.115565
56	0.558333	0.743254	1.48143	-0.410005	0.87546	1.39441	-0.361625	0.786963	1.42028	-0.58625	0.768928	0.96729	-0.520263	0.286924	0.153552	-0.420092	0.961609	1.28399	-0.599989	0.862282	1.20159	-0.718858	1.00057	1.23154	-0.616114	0.802746	1.16008	-0.739363	0.794888	1.09704	-0.676128	0.449032	0.0582474	-0.484433	0.61222	1.00862	-0.410659	0.587139	0.345541	-0.448536	0.489826	0.280935	-0.493697	0.457181	0.208054	-0.417018	0.696337	0.82836	-0.550937	0.727419	0.707792	-0.54032	0.62794	0.584615	-0.524991	0.486446	0.0717927	-0.399663	0.77509	1.3424	-0.641142	0.735961	1.25748	-0.629968	0.784743	1.25867	-0.686404	0.762753	1.45507	-0.220275	0.793548	0.984226	-0.264727	0.538102	0.591095	-0.298833	0.763175	1.0764	-0.105963	0.649204	1.19479	-0.0550396	0.70478	1.04593	-0.0836165	0.587371	1.25569	-0.0556736	0.544972	1.23634	-0.130006	0.532117	0.405748	-0.205262	0.621411	1.00971	-0.326041	0.866944	0.489979	-0.287217	0.797855	0.525645	-0.23413	0.688832	0.495901	-0.298722	0.813175	0.82176	-0.217409	0.932884	0.755824	-0.246866	0.929485	0.625615	-0.223554	0.553194	0.371327	-0.293829	0.703217	1.38107	-0.145906	0.69612	1.31221	-0.130738	0.594307	1.33424	-0.118445
57	0.566667	0.743936	1.48659	-0.409264	0.874235	1.40136	-0.357539	0.792851	1.42719	-0.583881	0.772204	0.96797	-0.52143	0.256548	0.169463	-0.424501	0.964942	1.28722	-0.586287	0.871402	1.20604	-0.710192	1.00408	1.23445	-0.599225	0.8126	1.16526	-0.733826	0.798398	1.10258	-0.67035	0.40851	0.0589075	-0.48473	0.616422	1.01289	-0.413469	0.557115	0.355969	-0.450234	0.458407	0.294717	-0.496776	0.426265	0.219323	-0.421257	0.694553	0.831583	-0.55089	0.717133	0.711002	-0.540262	0.607501	0.594896	-0.523673	0.448289	0.0726292	-0.400802	0.782946	1.34898	-0.63891	0.741452	1.26507	-0.629727	0.79438	1.26475	-0.682988	0.758345	1.46084	-0.220521	0.795959	0.990761	-0.268362	0.552397	0.551915	-0.299573	0.754062	1.08992	-0.0999388	0.638744	1.20875	-0.05415	0.695253	1.05919	-0.0795558	0.576722	1.26865	-0.0576859	0.53577	1.24801	-0.132696	0.573894	0.368054	-0.205239	0.624084	1.01591	-0.327303	0.893603	0.49401	-0.288766	0.820181	0.520545	-0.235452	0.713661	0.477274	-0.299423	0.820836	0.832188	-0.218037	0.941568	0.771014	-0.246728	0.944217	0.640317	-0.22525	0.598907	0.336417	-0.294191	0.696786	1.39048	-0.146489	0.688788	1.32259	-0.129349	0.58626	1.34554	-0.121181
58	0.575	0.744545	1.4915	-0.408178	0.872803	1.40812	-0.353676	0.798576	1.43422	-0.581101	0.776107	0.970141	-0.521952	0.23052	0.188009	-0.428791	0.96709	1.28966	-0.572795	0.879331	1.21102	-0.702517	1.00598	1.23669	-0.583206	0.821271	1.17142	-0.729382	0.800341	1.10889	-0.666663	0.369559	0.0602262	-0.485579	0.620875	1.01739	-0.416003	0.530245	0.368658	-0.452301	0.430217	0.310266	-0.500127	0.39933	0.231707	-0.426364	0.692828	0.835285	-0.551009	0.707505	0.71499	-0.54038	0.589367	0.606945	-0.522608	0.41175	0.073934	-0.402491	0.790442	1.35606	-0.636669	0.746592	1.27327	-0.630329	0.803268	1.27155	-0.680054	0.754547	1.46624	-0.220469	0.798109	0.997202	-0.272178	0.571495	0.510291	-0.301201	0.745608	1.10287	-0.0944081	0.629211	1.22218	-0.0535026	0.686575	1.07195	-0.0755782	0.567271	1.28117	-0.0598136	0.527485	1.25933	-0.135343	0.61971	0.332155	-0.205401	0.627067	1.02223	-0.328337	0.918681	0.497847	-0.290346	0.842134	0.514128	-0.236776	0.740422	0.457533	-0.299682	0.828284	0.84262	-0.219016	0.948916	0.785138	-0.246568	0.95601	0.653863	-0.226779	0.648053	0.303502	-0.294505	0.691308	1.39935	-0.146978	0.682461	1.33225	-0.128184	0.579385	1.35641	-0.123637
59	0.583333	0.745222	1.49601	-0.406759	0.871403	1.41414	-0.349977	0.804009	1.4411	-0.577978	0.780406	0.973465	-0.521927	0.209249	0.209313	-0.432313	0.967996	1.29137	-0.55992	0.886088	1.21611	-0.695675	1.00625	1.23819	-0.568468	0.828856	1.17805	-0.725902	0.801235	1.11574	-0.664881	0.331601	0.0629983	-0.486752	0.625115	1.02209	-0.417957	0.507301	0.382426	-0.455113	0.405604	0.326541	-0.503475	0.376342	0.244683	-0.431743	0.690602	0.839678	-0.551318	0.698376	0.719684	-0.54077	0.573935	0.619764	-0.521906	0.37692	0.0764371	-0.405085	0.79737	1.36335	-0.634391	0.751538	1.2817	-0.63142	0.811335	1.27867	-0.677508	0.751404	1.47113	-0.220089	0.799859	1.00362	-0.275858	0.595581	0.467059	-0.303706	0.737955	1.11496	-0.0891056	0.620524	1.2347	-0.0529367	0.678765	1.08379	-0.0716432	0.558951	1.29291	-0.0618914	0.520195	1.27007	-0.137897	0.668675	0.298678	-0.205692	0.630143	1.02823	-0.329319	0.941948	0.501355	-0.29162	0.863784	0.506692	-0.237975	0.769777	0.437195	-0.299786	0.834877	0.852933	-0.220153	0.954561	0.797761	-0.246134	0.964603	0.665738	-0.228346	0.70041	0.273188	-0.294604	0.686681	1.40744	-0.147252	0.676918	1.34081	-0.127315	0.573631	1.36655	-0.125754
60	0.591667	0.746073	1.50007	-0.40509	0.870326	1.41909	-0.346365	0.809105	1.44754	-0.574626	0.784782	0.977187	-0.521489	0.192404	0.233282	-0.434556	0.967688	1.29235	-0.547945	0.891739	1.22099	-0.689504	1.00498	1.2389	-0.555635	0.835468	1.18476	-0.723214	0.801468	1.12283	-0.664726	0.293623	0.0685455	-0.487673	0.62878	1.02703	-0.41937	0.488421	0.395833	-0.458568	0.384573	0.342496	-0.5065	0.356383	0.258009	-0.436577	0.688006	0.844969	-0.551814	0.68996	0.724969	-0.541515	0.561514	0.632236	-0.52167	0.343239	0.0811879	-0.40838	0.803666	1.37057	-0.632088	0.756281	1.29011	-0.632723	0.818632	1.28578	-0.675234	0.748888	1.47542	-0.219472	0.801147	1.00992	-0.278965	0.624334	0.423083	-0.306903	0.731229	1.12598	-0.0838862	0.612751	1.24607	-0.0524115	0.671874	1.09448	-0.067758	0.551725	1.30363	-0.0637987	0.513894	1.28004	-0.140254	0.719961	0.268108	-0.206086	0.633028	1.03363	-0.330444	0.963304	0.504251	-0.292432	0.885135	0.49855	-0.23891	0.801464	0.417015	-0.300173	0.839736	0.862714	-0.221164	0.958172	0.808429	-0.245086	0.969958	0.675466	-0.230207	0.755468	0.246214	-0.294543	0.682785	1.4146	-0.147268	0.672014	1.34814	-0.126661	0.568908	1.37577	-0.127561
61	0.6	0.747137	1.50363	-0.403314	0.869796	1.42296	-0.342779	0.813896	1.45332	-0.571182	0.788869	0.980659	-0.520649	0.178852	0.259483	-0.435453	0.966278	1.29258	-0.537055	0.89638	1.22542	-0.684012	1.00242	1.23873	-0.545186	0.84118	1.19123	-0.721203	0.80123	1.12988	-0.665887	0.255033	0.0783746	-0.487591	0.631729	1.03219	-0.420612	0.473061	0.407706	-0.461989	0.366797	0.357397	-0.508902	0.338059	0.271757	-0.440125	0.685684	0.850962	-0.552455	0.682911	0.730512	-0.54263	0.552407	0.643237	-0.522046	0.309781	0.0892807	-0.411371	0.809416	1.3775	-0.629809	0.760697	1.29836	-0.634125	0.825259	1.29259	-0.673155	0.746905	1.47901	-0.218745	0.801997	1.0158	-0.281075	0.657101	0.379217	-0.310425	0.725474	1.13577	-0.0787759	0.605987	1.2561	-0.0519127	0.66594	1.10388	-0.063965	0.545553	1.31312	-0.065453	0.508537	1.28907	-0.142295	0.77284	0.240873	-0.206663	0.635537	1.03847	-0.331872	0.98266	0.506193	-0.292846	0.906038	0.489894	-0.239482	0.834446	0.397715	-0.301126	0.842185	0.871259	-0.221791	0.959653	0.816862	-0.243281	0.972369	0.68267	-0.232443	0.812235	0.223366	-0.29464	0.679532	1.42077	-0.147049	0.667717	1.35429	-0.126062	0.565103	1.38397	-0.129094
62	0.608333	0.748429	1.50665	-0.401581	0.869879	1.42594	-0.339207	0.818475	1.45825	-0.567778	0.792358	0.983669	-0.519297	0.166936	0.287257	-0.435529	0.963934	1.29194	-0.527414	0.900104	1.22926	-0.679358	0.998908	1.2376	-0.537082	0.845984	1.19726	-0.719823	0.800536	1.13669	-0.668059	0.216388	0.0935394	-0.485848	0.634049	1.03738	-0.422133	0.460319	0.417526	-0.464487	0.351735	0.371047	-0.510474	0.320168	0.286277	-0.441959	0.684394	0.856948	-0.553156	0.678117	0.73573	-0.54395	0.546792	0.651827	-0.52313	0.275948	0.101633	-0.412552	0.814771	1.38389	-0.627609	0.764686	1.30637	-0.635645	0.831273	1.29886	-0.67128	0.745327	1.48188	-0.218005	0.802462	1.02084	-0.282017	0.693103	0.336266	-0.313804	0.720673	1.14419	-0.0738949	0.600274	1.26467	-0.0513777	0.660997	1.11194	-0.060292	0.540394	1.3212	-0.0667978	0.504097	1.29697	-0.143934	0.826549	0.217237	-0.207617	0.637644	1.04298	-0.333667	0.999828	0.506842	-0.292953	0.926122	0.480659	-0.239636	0.867453	0.379656	-0.302559	0.842104	0.877719	-0.22188	0.959268	0.822984	-0.240985	0.972419	0.687128	-0.234832	0.869278	0.205136	-0.295339	0.676879	1.42592	-0.146645	0.664064	1.35937	-0.125432	0.562109	1.39104	-0.130317
63	0.616667	0.74999	1.50913	-0.399974	0.870484	1.42824	-0.335695	0.822964	1.46224	-0.564526	0.7951	0.986409	-0.517313	0.155075	0.316009	-0.435739	0.960836	1.29031	-0.519188	0.902964	1.23236	-0.675704	0.994788	1.23545	-0.530789	0.849804	1.20268	-0.71904	0.799284	1.14311	-0.670938	0.179372	0.114104	-0.48208	0.635928	1.04233	-0.424156	0.449431	0.425502	-0.46549	0.338842	0.383791	-0.511162	0.302236	0.30209	-0.442067	0.684647	0.861984	-0.553802	0.676299	0.739944	-0.545077	0.544569	0.657457	-0.524822	0.242028	0.118871	-0.410611	0.819848	1.38954	-0.625521	0.768258	1.31405	-0.637348	0.836656	1.30442	-0.669689	0.744046	1.48404	-0.217309	0.802557	1.02472	-0.281946	0.731531	0.295033	-0.316622	0.716823	1.15117	-0.069303	0.595596	1.27168	-0.0506848	0.657101	1.11864	-0.056698	0.536222	1.32776	-0.0677892	0.500605	1.30359	-0.145126	0.880155	0.197145	-0.209175	0.639389	1.04741	-0.335772	1.01454	0.505864	-0.29268	0.944801	0.470541	-0.239384	0.899467	0.362751	-0.304032	0.839968	0.881423	-0.221398	0.957611	0.82681	-0.238842	0.97078	0.688813	-0.236915	0.924971	0.191436	-0.296962	0.674807	1.43004	-0.146106	0.661122	1.36343	-0.124793	0.559841	1.39688	-0.131106
64	0.625	0.751905	1.51108	-0.398478	0.871439	1.42997	-0.332332	0.827475	1.46529	-0.561496	0.797127	0.989187	-0.514746	0.142475	0.345432	-0.437093	0.957128	1.28762	-0.512494	0.904938	1.23464	-0.673083	0.990276	1.23223	-0.525661	0.852516	1.20734	-0.71877	0.797324	1.14908	-0.674204	0.145953	0.139139	-0.476277	0.637524	1.04678	-0.426548	0.440086	0.432308	-0.464986	0.327809	0.396281	-0.511099	0.284634	0.319683	-0.440803	0.686537	0.865349	-0.554283	0.677673	0.742609	-0.54547	0.545376	0.66009	-0.52681	0.209168	0.141263	-0.405088	0.824671	1.39431	-0.62356	0.771524	1.32135	-0.639262	0.841329	1.30917	-0.668458	0.743033	1.48553	-0.216673	0.802245	1.02742	-0.281173	0.771519	0.256432	-0.318685	0.714005	1.15673	-0.0649014	0.591931	1.27707	-0.0496936	0.654336	1.124	-0.0530614	0.533039	1.33273	-0.0683881	0.498136	1.30873	-0.145866	0.932548	0.180236	-0.211446	0.640745	1.05173	-0.338027	1.02655	0.502972	-0.291825	0.961398	0.459222	-0.238827	0.92988	0.346711	-0.305025	0.836575	0.882243	-0.220428	0.955402	0.82829	-0.237533	0.967924	0.687843	-0.238272	0.977811	0.181624	-0.29953	0.673311	1.43314	-0.145468	0.658954	1.36648	-0.124183	0.558257	1.40137	-0.131326
